<?xml version="1.0" encoding="UTF-8" standalone="no"?>
<!DOCTYPE svg PUBLIC "-//W3C//DTD SVG 1.1//EN" "http://www.w3.org/Graphics/SVG/1.1/DTD/svg11.dtd">
<svg width="100%" height="100%" viewBox="0 0 1080 1080" version="1.1" xmlns="http://www.w3.org/2000/svg" xmlns:xlink="http://www.w3.org/1999/xlink" xml:space="preserve" xmlns:serif="http://www.serif.com/" style="fill-rule:evenodd;clip-rule:evenodd;stroke-linejoin:round;stroke-miterlimit:2;">
    <!-- Dark background -->
    <g transform="matrix(1.13538,0,0,1.20889,-88.268,-127.255)">
        <rect x="77.743" y="105.266" width="951.227" height="893.383" style="fill:rgb(24,24,27);"/>
    </g>
    
    <!-- Letter G -->
    <g transform="matrix(1.2,0,0,1.2,80,200)">
        <path d="M100,50 L100,450 L180,450 L180,100 L350,100 L350,200 L430,200 L430,280 L250,280 L250,360 L430,360 L430,450 L180,450 L180,500 L500,500 L500,200 L350,200 L350,50 Z" style="fill:white;fill-rule:nonzero;"/>
    </g>
    
    <!-- Letter K -->
    <g transform="matrix(1.2,0,0,1.2,350,200)">
        <path d="M200,50 L200,500 L280,500 L280,310 L340,310 L440,500 L540,500 L420,280 L530,50 L430,50 L340,230 L280,230 L280,50 Z" style="fill:white;fill-rule:nonzero;"/>
    </g>
</svg>
